HIERARCHY
ROOT Hips
{
	OFFSET 0.000000 0.000000 0.000000
	CHANNELS 6 Xposition Yposition Zposition Zrotation Yrotation Xrotation 
	JOINT LHipJoint
	{
		OFFSET 0.000000 0.000000 0.000000
		CHANNELS 3 Zrotation Yrotation Xrotation
		JOINT LeftUpLeg
		{
			OFFSET 1.363060 -1.794630 0.839290
			CHANNELS 3 Zrotation Yrotation Xrotation
			JOINT LeftLeg
			{
				OFFSET 2.448110 -6.726130 0.000000
				CHANNELS 3 Zrotation Yrotation Xrotation
				JOINT LeftFoot
				{
					OFFSET 2.562200 -7.039590 0.000000
					CHANNELS 3 Zrotation Yrotation Xrotation
					JOINT LeftToeBase
					{
						OFFSET 0.157640 -0.433110 2.322550
						CHANNELS 3 Zrotation Yrotation Xrotation
						End Site
						{
							OFFSET 0.000000 0.000000 0.000000
						}
					}
				}
			}
		}
	}
	JOINT RHipJoint
	{
		OFFSET 0.000000 0.000000 0.000000
		CHANNELS 3 Zrotation Yrotation Xrotation
		JOINT RightUpLeg
		{
			OFFSET -1.305520 -1.794630 0.839290
			CHANNELS 3 Zrotation Yrotation Xrotation
			JOINT RightLeg
			{
				OFFSET -2.542530 -6.985550 0.000000
				CHANNELS 3 Zrotation Yrotation Xrotation
				JOINT RightFoot
				{
					OFFSET -2.568260 -7.056230 0.000000
					CHANNELS 3 Zrotation Yrotation Xrotation
					JOINT RightToeBase
					{
						OFFSET -0.164730 -0.452590 2.363150
						CHANNELS 3 Zrotation Yrotation Xrotation
						End Site
						{
							OFFSET 0.000000 0.000000 0.000000
						}
					}
				}
			}
		}
	}
	JOINT LowerBack
	{
		OFFSET 0.000000 0.000000 0.000000
		CHANNELS 3 Zrotation Yrotation Xrotation
		JOINT Spine
		{
			OFFSET 0.028270 2.035590 -0.193380
			CHANNELS 3 Zrotation Yrotation Xrotation
			JOINT Spine1
			{
				OFFSET 0.056720 2.048850 -0.042750
				CHANNELS 3 Zrotation Yrotation Xrotation
				JOINT Neck
				{
					OFFSET 0.000000 0.000000 0.000000
					CHANNELS 3 Zrotation Yrotation Xrotation
					JOINT Neck1
					{
						OFFSET -0.054170 1.746240 0.172020
						CHANNELS 3 Zrotation Yrotation Xrotation
						JOINT Head
						{
							OFFSET 0.104070 1.761360 -0.123970
							CHANNELS 3 Zrotation Yrotation Xrotation
							End Site
							{
								OFFSET 0.000000 0.000000 0.000000
							}
						}
					}
				}
				JOINT LeftShoulder
				{
					OFFSET 0.000000 0.000000 0.000000
					CHANNELS 3 Zrotation Yrotation Xrotation
					JOINT LeftArm
					{
						OFFSET 3.362410 1.200890 -0.311210
						CHANNELS 3 Zrotation Yrotation Xrotation
						JOINT LeftForeArm
						{
							OFFSET 4.983000 -0.000000 -0.000000
							CHANNELS 3 Zrotation Yrotation Xrotation
							JOINT LeftHand
							{
								OFFSET 3.483560 -0.000000 -0.000000
								CHANNELS 3 Zrotation Yrotation Xrotation
								JOINT LeftFingerBase
								{
									OFFSET 0.000000 0.000000 0.000000
									CHANNELS 3 Zrotation Yrotation Xrotation
									JOINT LeftHandIndex1
									{
										OFFSET 0.715260 -0.000000 -0.000000
										CHANNELS 3 Zrotation Yrotation Xrotation
										End Site
										{
											OFFSET 0.000000 0.000000 0.000000
										}
									}
								}
								JOINT LThumb
								{
									OFFSET 0.000000 0.000000 0.000000
									CHANNELS 3 Zrotation Yrotation Xrotation
									End Site
									{
										OFFSET 0.000000 0.000000 0.000000
									}
								}
							}
						}
					}
				}
				JOINT RightShoulder
				{
					OFFSET 0.000000 0.000000 0.000000
					CHANNELS 3 Zrotation Yrotation Xrotation
					JOINT RightArm
					{
						OFFSET -3.136600 1.374050 -0.404650
						CHANNELS 3 Zrotation Yrotation Xrotation
						JOINT RightForeArm
						{
							OFFSET -5.241900 -0.000000 -0.000000
							CHANNELS 3 Zrotation Yrotation Xrotation
							JOINT RightHand
							{
								OFFSET -3.444170 -0.000000 -0.000000
								CHANNELS 3 Zrotation Yrotation Xrotation
								JOINT RightFingerBase
								{
									OFFSET 0.000000 0.000000 0.000000
									CHANNELS 3 Zrotation Yrotation Xrotation
									JOINT RightHandIndex1
									{
										OFFSET -0.622530 -0.000000 -0.000000
										CHANNELS 3 Zrotation Yrotation Xrotation
										End Site
										{
											OFFSET 0.000000 0.000000 0.000000
										}
									}
								}
								JOINT RThumb
								{
									OFFSET 0.000000 0.000000 0.000000
									CHANNELS 3 Zrotation Yrotation Xrotation
									End Site
									{
										OFFSET 0.000000 0.000000 0.000000
									}
								}
							}
						}
					}
				}
			}
		}
	}
}
MOTION
Frames: 6
Frame Time: 0.008333
26.609164 16.069199 4.868800 -105.072756 -89.760345 131.012253 -13.346889 2.588577 -1.772468 -1.356079 8.338882 2.337088 -0.661767 0.177445 12.412106 1.279075 10.189127 3.590925 1.870200 0.000000 -81.715501 6.670892 -0.446818 3.636864 4.410382 7.315755 -62.273097 1.813446 -2.539832 32.119646 -0.656896 -2.724970 3.559500 -1.342100 -0.000000 -43.521900 11.709714 -4.211434 0.304004 1.488149 -4.930319 -2.529038 -7.900021 -4.936169 1.984501 11.731721 -9.034096 -6.209352 -4.148727 -0.319301 0.237833 0.000000 0.000000 0.000000 -0.837277 2.574085 3.095328 -29.846162 -9.680499 11.655972 -1.712399 -65.516922 0.009855 -3.503408 0.927605 -0.021702 -0.113145 0.148853 0.000000 0.000000 0.000000 0.000000 0.000000 0.000000 0.000000 20.866890 -9.733642 0.868055 57.442764 -8.206186 -7.912726 3.619316 29.749173 0.013847 2.533925 7.241516 0.156214 0.088121 -0.043745 0.000000 0.000000 0.000000 0.000000 0.000000 0.000000 0.000000 
26.393774 16.087220 4.833754 -100.060967 -89.801145 126.080267 -13.650129 2.616360 -1.730705 -0.966104 8.344920 1.549172 -0.453893 0.365851 14.386847 1.361120 10.727683 5.776878 2.321500 -0.000000 -82.178100 6.471586 -0.521494 3.515525 4.717301 7.471439 -62.106389 1.731406 -2.631172 33.623064 -0.754566 -3.021907 2.529854 -1.337401 0.000000 -43.183600 12.024061 -4.250775 0.349892 1.548473 -4.983072 -2.538426 -7.905096 -4.991982 1.952704 11.765111 -8.774742 -6.184704 -4.220495 -0.324427 0.241012 0.000000 0.000000 0.000000 -0.810064 2.612472 3.074812 -30.774615 -8.760630 11.764879 -1.745360 -65.345136 0.009394 -3.457702 0.956077 -0.022381 -0.116039 0.144227 0.000000 0.000000 0.000000 0.000000 0.000000 0.000000 0.000000 21.165467 -9.528645 0.873762 57.118101 -7.421300 -7.884990 3.640433 29.326331 0.013711 2.607550 7.210910 0.160210 0.087232 -0.043148 0.000000 0.000000 0.000000 0.000000 0.000000 0.000000 0.000000 
26.179765 16.109109 4.797172 -95.833600 -89.803299 121.903457 -13.921302 2.624550 -1.706747 -0.592452 8.445178 0.622646 -0.250001 0.544133 16.578566 1.468558 11.296751 7.940037 2.793100 -0.000000 -81.570800 6.304891 -0.580842 3.384101 5.090598 7.568839 -61.785095 1.684860 -2.699478 34.918965 -0.837891 -3.217102 1.324599 -1.284900 0.000000 -42.996600 12.314763 -4.278791 0.421806 1.601400 -5.021278 -2.544197 -7.914212 -5.033740 1.911889 11.823704 -8.505838 -6.143259 -4.292963 -0.329704 0.248789 0.000000 0.000000 0.000000 -0.742859 2.587994 3.050238 -31.746553 -7.770104 11.910820 -1.776732 -65.132739 0.008955 -3.432490 0.982723 -0.023068 -0.118029 0.138975 0.000000 0.000000 0.000000 0.000000 0.000000 0.000000 0.000000 21.488837 -9.314336 0.884379 56.792903 -6.586811 -7.805460 3.661547 28.907006 0.013580 2.690542 7.181044 0.164907 0.086311 -0.042610 0.000000 0.000000 0.000000 0.000000 0.000000 0.000000 0.000000 
25.967532 16.134540 4.758901 -92.404866 -89.781778 118.500436 -14.151970 2.605190 -1.698715 -0.261241 8.612352 -0.430855 -0.057965 0.705403 18.969487 1.600561 11.914157 9.985214 3.278600 0.000001 -79.782899 6.172823 -0.631568 3.246585 5.510731 7.603261 -61.315484 1.671484 -2.747962 35.997019 -0.905820 -3.309477 0.004832 -1.191500 0.000001 -42.916500 12.571650 -4.297777 0.514964 1.645328 -5.047085 -2.543740 -7.927469 -5.062997 1.874187 11.907955 -8.235453 -6.095114 -4.364305 -0.334869 0.258238 0.000000 0.000000 0.000000 -0.655921 2.563053 3.023942 -32.711956 -6.824360 12.131539 -1.809008 -64.844150 0.008528 -3.422002 1.007315 -0.023860 -0.119441 0.133270 0.000000 0.000000 0.000000 0.000000 0.000000 0.000000 0.000000 21.837921 -9.099160 0.894831 56.474194 -5.690942 -7.679102 3.682336 28.485721 0.013457 2.781185 7.154009 0.170004 0.085344 -0.042139 0.000000 0.000000 0.000000 0.000000 0.000000 0.000000 0.000000 
25.757686 16.163277 4.718973 -89.751293 -89.748854 115.848032 -14.337305 2.554232 -1.705368 0.004384 8.822333 -1.598675 0.113549 0.846892 21.536829 1.752068 12.590343 11.807791 3.769400 -0.000000 -76.818900 6.074863 -0.679095 3.107274 5.957294 7.576516 -60.706277 1.687167 -2.778836 36.852054 -0.958309 -3.306831 -1.362794 -1.069000 0.000000 -42.893300 12.784760 -4.308398 0.624353 1.678243 -5.061099 -2.538076 -7.944677 -5.080365 1.839256 12.014043 -7.960344 -6.037983 -4.434105 -0.339919 0.270088 0.000000 0.000000 0.000000 -0.552930 2.532317 2.997470 -33.655166 -5.924757 12.431629 -1.841711 -64.488155 0.008119 -3.431838 1.031008 -0.024758 -0.120278 0.127066 0.000000 0.000000 0.000000 0.000000 0.000000 0.000000 0.000000 22.207179 -8.879853 0.905719 56.170881 -4.742786 -7.515390 3.702807 28.058527 0.013347 2.877493 7.132064 0.175601 0.084340 -0.041779 0.000000 0.000000 0.000000 0.000000 0.000000 0.000000 0.000000 
25.550557 16.195090 4.677490 -87.860547 -89.713133 113.936148 -14.473906 2.472215 -1.726260 0.185238 9.054417 -2.868354 0.257500 0.970276 24.252077 1.914960 13.327606 13.310715 4.253500 0.000000 -72.833100 6.010433 -0.727170 2.970701 6.409814 7.494761 -59.969493 1.726635 -2.793873 37.484104 -0.996118 -3.223484 -2.713166 -0.930900 -0.000000 -42.880400 12.945763 -4.310373 0.745337 1.698495 -5.063030 -2.529275 -7.964845 -5.085780 1.802812 12.136932 -7.691786 -5.968024 -4.501944 -0.344901 0.285614 0.000000 0.000000 0.000000 -0.427806 2.451513 2.969601 -34.584327 -5.007350 12.788150 -1.872096 -64.097191 0.007738 -3.474388 1.053952 -0.025963 -0.120229 0.120212 0.000000 0.000000 0.000000 0.000000 0.000000 0.000000 0.000000 22.589195 -8.669304 0.920955 55.884946 -3.732523 -7.292639 3.723683 27.606739 0.013273 2.964691 7.124119 0.180898 0.083433 -0.041619 0.000000 0.000000 0.000000 0.000000 0.000000 0.000000 0.000000 
